<svg width="180" height="107" viewBox="0 0 180 107" fill="none" xmlns="http://www.w3.org/2000/svg">
<path d="M12 101.36V6H46.688C53.088 6 58.72 7.19467 63.584 9.58401C68.448 11.888 72.2453 15.3013 74.976 19.824C77.792 24.2613 79.2 29.5947 79.2 35.824C79.2 42.3947 77.536 48.0267 74.208 52.72C70.9653 57.4133 66.5707 60.8267 61.024 62.96L83.04 101.36H65.888L42.464 59.76L52.32 65.52H27.104V101.36H12ZM12 52.08H46.944C50.4427 52.08 53.472 51.3973 56.032 50.032C58.592 48.6667 60.5547 46.7893 61.92 44.4C63.3707 41.9253 64.096 39.024 64.096 35.696C64.096 32.368 63.3707 29.5093 61.92 27.12C60.5547 24.6453 58.592 22.768 56.032 21.488C53.472 20.1227 50.4427 19.44 46.944 19.44H12V52.08Z" fill="url(#paint0_linear_2030_84)"/>
<path d="M88.198 101.36V6H119.43C129.329 6 137.905 8.00534 145.158 12.016C152.497 15.9413 158.171 21.488 162.182 28.656C166.193 35.824 168.198 44.144 168.198 53.616C168.198 63.0027 166.193 71.3227 162.182 78.576C158.171 85.744 152.497 91.3333 145.158 95.344C137.905 99.3547 129.329 101.36 119.43 101.36H88.198ZM103 87.92H119.686C126.427 87.92 132.273 86.512 137.222 83.696C142.257 80.88 146.139 76.912 148.87 71.792C151.601 66.672 152.966 60.6133 152.966 53.616C152.966 46.6187 151.558 40.6027 148.742 35.568C146.011 30.448 142.171 26.48 137.222 23.664C132.273 20.848 126.427 19.44 119.686 19.44H88.198V52.72H103V87.92Z" fill="url(#paint1_linear_2030_84)"/>
<defs>
<linearGradient id="paint0_linear_2030_84" x1="110.621" y1="91.5988" x2="144.483" y2="118.277" gradientUnits="userSpaceOnUse">
<stop stop-color="#4FACFE"/>
<stop offset="1" stop-color="#1BFFFF"/>
</linearGradient>
<linearGradient id="paint1_linear_2030_84" x1="110.621" y1="91.5988" x2="144.483" y2="118.277" gradientUnits="userSpaceOnUse">
<stop stop-color="#4FACFE"/>
<stop offset="1" stop-color="#1BFFFF"/>
</linearGradient>
</defs>
</svg>
